<mxfile host="app.diagrams.net" modified="2023-11-06T14:10:11.568Z" agent="Mozilla/5.0 (Macintosh; Intel Mac OS X 10_15_7) AppleWebKit/537.36 (KHTML, like Gecko) Chrome/118.0.0.0 Safari/537.36" etag="oHMNEfnzzkNUcWHEqwCc" version="22.0.8" type="device">
  <diagram name="第 1 页" id="4grBjr5hehTKnHqGOY0P">
    <mxGraphModel dx="2405" dy="2154" grid="1" gridSize="10" guides="1" tooltips="1" connect="1" arrows="1" fold="1" page="1" pageScale="1" pageWidth="827" pageHeight="1169" math="0" shadow="0">
      <root>
        <mxCell id="0" />
        <mxCell id="1" parent="0" />
        <mxCell id="tVMkS5m_2Bp1rili5dJo-1" value="&lt;div style=&quot;background-color:#282c34;color:#bbbbbb;font-family:&#39;JetBrains Mono&#39;,monospace;font-size:9.8pt;&quot;&gt;&lt;pre&gt;&lt;br&gt;&lt;/pre&gt;&lt;/div&gt;" style="rounded=0;whiteSpace=wrap;html=1;fillColor=#f8cecc;strokeColor=#b85450;" vertex="1" parent="1">
          <mxGeometry x="14" y="215" width="800" height="370" as="geometry" />
        </mxCell>
        <mxCell id="tVMkS5m_2Bp1rili5dJo-2" value="&lt;font style=&quot;font-size: 20px;&quot;&gt;ActivityPub&lt;/font&gt;" style="text;html=1;strokeColor=#d6b656;fillColor=#fff2cc;align=center;verticalAlign=middle;whiteSpace=wrap;rounded=0;" vertex="1" parent="1">
          <mxGeometry x="340" y="200" width="130" height="30" as="geometry" />
        </mxCell>
        <mxCell id="tVMkS5m_2Bp1rili5dJo-8" value="" style="edgeStyle=orthogonalEdgeStyle;rounded=0;orthogonalLoop=1;jettySize=auto;html=1;" edge="1" parent="1" source="tVMkS5m_2Bp1rili5dJo-3" target="tVMkS5m_2Bp1rili5dJo-6">
          <mxGeometry relative="1" as="geometry" />
        </mxCell>
        <mxCell id="tVMkS5m_2Bp1rili5dJo-3" value="&lt;font style=&quot;font-size: 17px;&quot;&gt;ActivityPubUser&lt;/font&gt;" style="rounded=0;whiteSpace=wrap;html=1;" vertex="1" parent="1">
          <mxGeometry x="80" y="430" width="140" height="50" as="geometry" />
        </mxCell>
        <mxCell id="tVMkS5m_2Bp1rili5dJo-15" style="edgeStyle=orthogonalEdgeStyle;rounded=0;orthogonalLoop=1;jettySize=auto;html=1;entryX=0.5;entryY=1;entryDx=0;entryDy=0;" edge="1" parent="1" source="tVMkS5m_2Bp1rili5dJo-4" target="tVMkS5m_2Bp1rili5dJo-13">
          <mxGeometry relative="1" as="geometry">
            <mxPoint x="400" y="100" as="targetPoint" />
            <Array as="points">
              <mxPoint x="660" y="160" />
              <mxPoint x="405" y="160" />
            </Array>
          </mxGeometry>
        </mxCell>
        <mxCell id="tVMkS5m_2Bp1rili5dJo-4" value="&lt;span style=&quot;font-size: 17px;&quot;&gt;TimelineSource&lt;/span&gt;" style="rounded=0;whiteSpace=wrap;html=1;" vertex="1" parent="1">
          <mxGeometry x="570" y="350" width="180" height="50" as="geometry" />
        </mxCell>
        <mxCell id="tVMkS5m_2Bp1rili5dJo-7" style="edgeStyle=orthogonalEdgeStyle;rounded=0;orthogonalLoop=1;jettySize=auto;html=1;exitX=0.5;exitY=0;exitDx=0;exitDy=0;entryX=0.5;entryY=1;entryDx=0;entryDy=0;" edge="1" parent="1" source="tVMkS5m_2Bp1rili5dJo-5" target="tVMkS5m_2Bp1rili5dJo-3">
          <mxGeometry relative="1" as="geometry" />
        </mxCell>
        <mxCell id="tVMkS5m_2Bp1rili5dJo-5" value="&lt;span style=&quot;font-size: 17px;&quot;&gt;ActivityPubAccountEntity&lt;/span&gt;" style="rounded=0;whiteSpace=wrap;html=1;" vertex="1" parent="1">
          <mxGeometry x="40" y="520" width="220" height="50" as="geometry" />
        </mxCell>
        <mxCell id="tVMkS5m_2Bp1rili5dJo-14" style="edgeStyle=orthogonalEdgeStyle;rounded=0;orthogonalLoop=1;jettySize=auto;html=1;entryX=0.5;entryY=1;entryDx=0;entryDy=0;" edge="1" parent="1" source="tVMkS5m_2Bp1rili5dJo-6" target="tVMkS5m_2Bp1rili5dJo-13">
          <mxGeometry relative="1" as="geometry">
            <Array as="points">
              <mxPoint x="150" y="160" />
              <mxPoint x="405" y="160" />
            </Array>
          </mxGeometry>
        </mxCell>
        <mxCell id="tVMkS5m_2Bp1rili5dJo-6" value="&lt;font style=&quot;font-size: 17px;&quot;&gt;UserSource&lt;/font&gt;" style="rounded=0;whiteSpace=wrap;html=1;" vertex="1" parent="1">
          <mxGeometry x="80" y="340" width="140" height="50" as="geometry" />
        </mxCell>
        <mxCell id="tVMkS5m_2Bp1rili5dJo-11" value="" style="edgeStyle=orthogonalEdgeStyle;rounded=0;orthogonalLoop=1;jettySize=auto;html=1;" edge="1" parent="1" source="tVMkS5m_2Bp1rili5dJo-9" target="tVMkS5m_2Bp1rili5dJo-10">
          <mxGeometry relative="1" as="geometry" />
        </mxCell>
        <mxCell id="tVMkS5m_2Bp1rili5dJo-9" value="&lt;span style=&quot;font-size: 17px;&quot;&gt;ActivityPubInstanceEntity&lt;/span&gt;" style="rounded=0;whiteSpace=wrap;html=1;" vertex="1" parent="1">
          <mxGeometry x="550" y="520" width="220" height="50" as="geometry" />
        </mxCell>
        <mxCell id="tVMkS5m_2Bp1rili5dJo-12" value="" style="edgeStyle=orthogonalEdgeStyle;rounded=0;orthogonalLoop=1;jettySize=auto;html=1;" edge="1" parent="1" source="tVMkS5m_2Bp1rili5dJo-10" target="tVMkS5m_2Bp1rili5dJo-4">
          <mxGeometry relative="1" as="geometry" />
        </mxCell>
        <mxCell id="tVMkS5m_2Bp1rili5dJo-10" value="&lt;span style=&quot;font-size: 17px;&quot;&gt;StatusProviderServer&lt;/span&gt;" style="rounded=0;whiteSpace=wrap;html=1;" vertex="1" parent="1">
          <mxGeometry x="570" y="440" width="180" height="50" as="geometry" />
        </mxCell>
        <mxCell id="tVMkS5m_2Bp1rili5dJo-13" value="&lt;font style=&quot;font-size: 24px;&quot;&gt;StatusSource&lt;/font&gt;" style="whiteSpace=wrap;html=1;fillColor=#dae8fc;strokeColor=#6c8ebf;" vertex="1" parent="1">
          <mxGeometry x="325" y="20" width="160" height="60" as="geometry" />
        </mxCell>
        <mxCell id="tVMkS5m_2Bp1rili5dJo-32" style="edgeStyle=orthogonalEdgeStyle;rounded=0;orthogonalLoop=1;jettySize=auto;html=1;exitX=0.5;exitY=1;exitDx=0;exitDy=0;entryX=0.5;entryY=0;entryDx=0;entryDy=0;" edge="1" parent="1" source="tVMkS5m_2Bp1rili5dJo-16" target="tVMkS5m_2Bp1rili5dJo-26">
          <mxGeometry relative="1" as="geometry" />
        </mxCell>
        <mxCell id="tVMkS5m_2Bp1rili5dJo-16" value="&lt;font style=&quot;font-size: 19px;&quot;&gt;StatusSourceUri: String&lt;/font&gt;" style="whiteSpace=wrap;html=1;fillColor=#d5e8d4;strokeColor=#82b366;" vertex="1" parent="1">
          <mxGeometry x="1170" y="20" width="220" height="70" as="geometry" />
        </mxCell>
        <mxCell id="tVMkS5m_2Bp1rili5dJo-21" value="" style="endArrow=none;html=1;rounded=0;strokeWidth=5;fillColor=#1ba1e2;strokeColor=#006EAF;" edge="1" parent="1">
          <mxGeometry width="50" height="50" relative="1" as="geometry">
            <mxPoint x="-290" y="120" as="sourcePoint" />
            <mxPoint x="1720" y="120" as="targetPoint" />
          </mxGeometry>
        </mxCell>
        <mxCell id="tVMkS5m_2Bp1rili5dJo-22" value="&lt;font style=&quot;font-size: 34px;&quot;&gt;Application&lt;/font&gt;" style="whiteSpace=wrap;html=1;fillColor=#ffe6cc;strokeColor=#d79b00;" vertex="1" parent="1">
          <mxGeometry x="-220" y="-70" width="220" height="70" as="geometry" />
        </mxCell>
        <mxCell id="tVMkS5m_2Bp1rili5dJo-23" value="&lt;font style=&quot;font-size: 34px;&quot;&gt;SubModule&lt;/font&gt;" style="whiteSpace=wrap;html=1;fillColor=#ffe6cc;strokeColor=#d79b00;" vertex="1" parent="1">
          <mxGeometry x="-220" y="150" width="220" height="70" as="geometry" />
        </mxCell>
        <mxCell id="tVMkS5m_2Bp1rili5dJo-24" value="&lt;div style=&quot;background-color:#282c34;color:#bbbbbb;font-family:&#39;JetBrains Mono&#39;,monospace;font-size:9.8pt;&quot;&gt;&lt;pre&gt;&lt;br&gt;&lt;/pre&gt;&lt;/div&gt;" style="rounded=0;whiteSpace=wrap;html=1;fillColor=#f8cecc;strokeColor=#b85450;" vertex="1" parent="1">
          <mxGeometry x="880" y="220" width="800" height="370" as="geometry" />
        </mxCell>
        <mxCell id="tVMkS5m_2Bp1rili5dJo-25" value="&lt;font style=&quot;font-size: 20px;&quot;&gt;ActivityPub&lt;/font&gt;" style="text;html=1;strokeColor=#d6b656;fillColor=#fff2cc;align=center;verticalAlign=middle;whiteSpace=wrap;rounded=0;" vertex="1" parent="1">
          <mxGeometry x="930" y="200" width="130" height="30" as="geometry" />
        </mxCell>
        <mxCell id="tVMkS5m_2Bp1rili5dJo-35" style="edgeStyle=orthogonalEdgeStyle;rounded=0;orthogonalLoop=1;jettySize=auto;html=1;exitX=0;exitY=0.5;exitDx=0;exitDy=0;entryX=0.5;entryY=0;entryDx=0;entryDy=0;" edge="1" parent="1" source="tVMkS5m_2Bp1rili5dJo-26" target="tVMkS5m_2Bp1rili5dJo-28">
          <mxGeometry relative="1" as="geometry" />
        </mxCell>
        <mxCell id="tVMkS5m_2Bp1rili5dJo-36" style="edgeStyle=orthogonalEdgeStyle;rounded=0;orthogonalLoop=1;jettySize=auto;html=1;exitX=1;exitY=0.5;exitDx=0;exitDy=0;entryX=0.5;entryY=0;entryDx=0;entryDy=0;" edge="1" parent="1" source="tVMkS5m_2Bp1rili5dJo-26" target="tVMkS5m_2Bp1rili5dJo-29">
          <mxGeometry relative="1" as="geometry" />
        </mxCell>
        <mxCell id="tVMkS5m_2Bp1rili5dJo-26" value="&lt;font style=&quot;font-size: 19px;&quot;&gt;StatusResolver&lt;/font&gt;" style="whiteSpace=wrap;html=1;" vertex="1" parent="1">
          <mxGeometry x="1202.5" y="260" width="155" height="60" as="geometry" />
        </mxCell>
        <mxCell id="tVMkS5m_2Bp1rili5dJo-37" style="edgeStyle=orthogonalEdgeStyle;rounded=0;orthogonalLoop=1;jettySize=auto;html=1;exitX=0.5;exitY=1;exitDx=0;exitDy=0;entryX=0.5;entryY=0;entryDx=0;entryDy=0;" edge="1" parent="1" source="tVMkS5m_2Bp1rili5dJo-28" target="tVMkS5m_2Bp1rili5dJo-30">
          <mxGeometry relative="1" as="geometry" />
        </mxCell>
        <mxCell id="tVMkS5m_2Bp1rili5dJo-28" value="&lt;font style=&quot;font-size: 19px;&quot;&gt;UserStatusResolver&lt;/font&gt;" style="whiteSpace=wrap;html=1;" vertex="1" parent="1">
          <mxGeometry x="970" y="390" width="210" height="60" as="geometry" />
        </mxCell>
        <mxCell id="tVMkS5m_2Bp1rili5dJo-38" style="edgeStyle=orthogonalEdgeStyle;rounded=0;orthogonalLoop=1;jettySize=auto;html=1;exitX=0.5;exitY=1;exitDx=0;exitDy=0;entryX=0.5;entryY=0;entryDx=0;entryDy=0;" edge="1" parent="1" source="tVMkS5m_2Bp1rili5dJo-29" target="tVMkS5m_2Bp1rili5dJo-31">
          <mxGeometry relative="1" as="geometry" />
        </mxCell>
        <mxCell id="tVMkS5m_2Bp1rili5dJo-29" value="&lt;font style=&quot;font-size: 19px;&quot;&gt;TimelineStatusResolver&lt;/font&gt;" style="whiteSpace=wrap;html=1;" vertex="1" parent="1">
          <mxGeometry x="1390" y="390" width="230" height="60" as="geometry" />
        </mxCell>
        <mxCell id="tVMkS5m_2Bp1rili5dJo-30" value="&lt;font style=&quot;font-size: 19px;&quot;&gt;Status&lt;/font&gt;" style="whiteSpace=wrap;html=1;" vertex="1" parent="1">
          <mxGeometry x="1012.5" y="500" width="125" height="60" as="geometry" />
        </mxCell>
        <mxCell id="tVMkS5m_2Bp1rili5dJo-31" value="&lt;font style=&quot;font-size: 19px;&quot;&gt;Status&lt;/font&gt;" style="whiteSpace=wrap;html=1;" vertex="1" parent="1">
          <mxGeometry x="1442.5" y="500" width="125" height="60" as="geometry" />
        </mxCell>
      </root>
    </mxGraphModel>
  </diagram>
</mxfile>
